<?xml version="1.0" standalone="no"?>
<!DOCTYPE svg PUBLIC "-//W3C//DTD SVG 20010904//EN"
 "http://www.w3.org/TR/2001/REC-SVG-20010904/DTD/svg10.dtd">
<svg version="1.0" xmlns="http://www.w3.org/2000/svg"
 width="128.000000pt" height="128.000000pt" viewBox="0 0 128.000000 128.000000"
 preserveAspectRatio="xMidYMid meet">
<metadata>
Created by potrace 1.11, written by Peter Selinger 2001-2013
</metadata>
<g transform="translate(0.000000,128.000000) scale(0.100000,-0.100000)"
fill="#000000" stroke="none">
<path d="M638 1233 c-9 -17 -2 -38 12 -35 10 3 9 -3 -4 -17 -22 -24 -35 -29
-16 -6 9 10 9 15 1 15 -6 0 -11 -4 -11 -10 0 -5 -9 -17 -19 -27 -19 -18 -19
-18 5 -19 13 -1 21 2 18 7 -3 5 2 6 10 3 14 -5 14 -8 1 -21 -16 -15 -21 -38
-7 -29 5 3 9 -1 9 -9 0 -20 -13 -19 -21 2 -6 14 -10 12 -26 -12 -11 -17 -20
-38 -20 -47 0 -9 -9 -37 -20 -62 l-19 -46 -79 2 c-66 2 -79 5 -74 17 10 25 89
97 121 111 17 7 31 15 31 19 0 3 12 7 26 7 32 2 37 8 30 32 -5 15 -16 20 -46
20 -28 1 -40 -3 -40 -14 0 -8 -5 -14 -11 -14 -5 0 -8 4 -5 9 4 5 -3 7 -14 4
-18 -5 -18 -6 -2 -31 9 -14 11 -23 5 -19 -7 5 -13 4 -13 -2 0 -6 -4 -11 -8
-11 -5 0 -9 7 -9 15 0 8 4 12 9 9 4 -3 8 0 8 5 0 21 -37 11 -63 -16 -15 -16
-35 -37 -46 -47 -11 -10 -18 -23 -15 -27 3 -5 1 -9 -5 -9 -6 0 -8 -7 -5 -15 5
-11 2 -13 -12 -8 -10 3 -15 2 -12 -3 4 -5 0 -18 -8 -29 -8 -10 -14 -15 -14 -9
0 5 -25 9 -55 10 -30 0 -55 -4 -55 -8 0 -4 9 -8 20 -8 11 0 20 -5 20 -11 0 -5
4 -7 10 -4 5 3 10 1 10 -6 0 -6 7 -17 16 -24 13 -9 17 -32 18 -106 1 -52 6
-101 11 -109 5 -8 10 -17 10 -20 1 -20 70 -123 85 -127 20 -5 20 -23 -4 -92
-9 -22 -12 -41 -7 -41 14 0 41 36 34 45 -5 4 -3 6 2 2 6 -3 21 1 35 8 20 11
28 11 45 -1 34 -22 127 -42 153 -33 13 5 21 5 18 1 -7 -12 105 7 121 20 8 6
16 8 20 4 3 -3 17 1 29 9 18 12 26 12 36 2 36 -34 88 -67 87 -55 0 7 -8 35
-18 62 l-17 50 29 30 c17 17 44 60 61 96 27 57 31 76 32 156 1 84 3 93 28 117
15 15 29 27 31 27 3 0 10 0 15 0 6 0 10 4 10 9 0 10 -26 9 -36 -2 -4 -4 -13
-2 -20 3 -6 6 -16 10 -20 9 -25 -4 -44 3 -44 16 0 8 -9 20 -20 27 -11 7 -20
19 -20 27 0 35 -145 139 -176 127 -9 -3 -12 -1 -9 4 6 10 -1 12 -40 13 -41 0
-52 -3 -52 -18 0 -16 9 -19 21 -8 3 4 17 8 29 9 12 2 16 0 9 -2 -6 -3 -9 -11
-6 -16 4 -6 2 -8 -4 -4 -6 3 -13 2 -17 -4 -4 -7 -12 -7 -24 0 -10 5 -21 6 -25
2 -9 -9 5 30 16 45 5 7 5 14 -2 18 -6 3 -8 10 -5 15 3 4 -1 20 -9 35 -8 14
-16 23 -18 18z m26 -71 c3 -5 -1 -9 -9 -9 -8 0 -12 4 -9 9 3 4 7 8 9 8 2 0 6
-4 9 -8z m0 -84 c-5 -8 0 -9 14 -6 12 4 20 2 16 -3 -3 -5 0 -9 5 -9 6 0 11 6
11 14 0 22 117 -43 161 -91 21 -23 39 -46 39 -51 0 -5 -34 -8 -75 -8 -70 1
-76 3 -89 27 -14 28 -30 80 -28 92 1 4 -4 7 -12 7 -16 0 -29 -27 -20 -43 3 -7
-2 -3 -11 8 -14 18 -14 21 2 34 17 13 17 13 -2 9 -15 -4 -21 0 -22 13 -1 11 3
19 8 19 6 0 7 -5 3 -12z m-57 -35 c1 -24 1 -25 -7 -8 -5 12 -9 14 -9 6 -1 -8
-4 -11 -7 -8 -5 5 12 37 20 37 1 0 2 -12 3 -27z m-182 -11 c-3 -3 -11 0 -18 7
-9 10 -8 11 6 5 10 -3 15 -9 12 -12z m225 -11 c0 -4 -6 -8 -14 -8 -8 0 -12 6
-9 14 5 13 23 9 23 -6z m-336 -135 c-10 -8 -21 -12 -24 -10 -5 6 21 24 34 24
6 0 1 -6 -10 -14z m146 -181 c0 -6 -10 -42 -23 -80 l-23 -68 -21 29 c-39 56
-54 96 -60 161 l-6 65 67 -48 c36 -26 66 -53 66 -59z m496 57 c-3 -60 -30
-139 -59 -175 l-22 -28 -26 76 -26 76 66 50 c36 27 66 49 67 49 1 0 1 -21 0
-48z m-246 -229 c33 -25 58 -48 55 -51 -10 -10 -113 -29 -145 -26 -20 2 -51 9
-69 17 l-33 14 37 29 c20 16 47 37 58 46 12 10 25 17 29 18 5 0 35 -21 68 -47z"/>
<path d="M590 1120 c0 -5 7 -10 16 -10 8 0 12 5 9 10 -3 6 -10 10 -16 10 -5 0
-9 -4 -9 -10z"/>
<path d="M363 302 c27 -30 49 -90 35 -98 -8 -5 -5 -10 8 -14 28 -11 32 -4 25
32 -5 26 -2 37 21 62 15 16 30 27 34 24 3 -4 7 -28 8 -54 2 -48 22 -74 56 -74
33 0 49 24 54 83 4 51 3 57 -14 57 -16 0 -17 -4 -10 -32 10 -36 9 -56 -3 -75
-12 -19 -45 -16 -50 5 -9 33 -6 87 6 94 7 4 -12 8 -41 8 -29 0 -51 -3 -48 -8
2 -4 -2 -16 -11 -27 -14 -20 -15 -20 -28 -1 -8 10 -12 23 -9 27 3 5 -7 9 -22
9 -25 0 -26 -1 -11 -18z"/>
<path d="M648 302 c9 -18 8 -94 -1 -109 -3 -4 24 -8 59 -8 46 -1 63 2 60 11
-5 14 13 34 31 34 8 0 18 -11 23 -24 6 -16 16 -24 30 -23 19 1 30 17 12 17 -5
0 -20 27 -33 60 -13 33 -27 60 -30 60 -6 0 -20 -30 -51 -110 -7 -20 -11 -22
-18 -10 -6 9 -10 10 -10 3 0 -6 -9 -9 -21 -6 -18 5 -20 12 -17 62 3 53 1 57
-20 59 -18 1 -21 -1 -14 -16z m143 -55 c-10 -9 -11 -8 -5 6 3 10 9 15 12 12 3
-3 0 -11 -7 -18z"/>
<path d="M886 253 c2 -61 4 -68 23 -71 20 -3 29 12 13 22 -5 3 -5 30 -2 60 6
52 5 56 -14 56 -19 0 -21 -6 -20 -67z"/>
<path d="M21 89 c1 -31 -2 -62 -5 -68 -5 -7 4 -11 25 -11 24 0 29 3 22 12 -11
15 -24 58 -16 58 2 0 13 -5 24 -10 16 -9 19 -7 19 9 0 14 -5 18 -20 14 -16 -4
-20 0 -20 17 0 19 4 21 25 16 17 -4 23 -3 20 6 -3 7 -21 13 -40 13 l-35 0 1
-56z"/>
<path d="M128 136 c11 -17 10 -99 -1 -114 -8 -10 -1 -13 36 -11 29 2 47 7 47
15 0 7 -8 10 -20 7 -13 -3 -22 1 -26 12 -8 21 17 40 28 22 6 -9 8 -9 8 1 0 25
-1 27 -18 24 -12 -2 -18 5 -19 19 -2 18 2 20 25 14 22 -5 25 -4 14 7 -16 16
-85 21 -74 4z"/>
<path d="M238 141 c10 -6 13 -26 10 -70 l-3 -61 43 0 c32 0 49 6 67 25 53 52
14 111 -75 113 -34 1 -50 -1 -42 -7z m97 -35 c20 -31 11 -72 -18 -80 -12 -3
-26 -1 -31 4 -7 7 -11 65 -7 95 3 15 43 2 56 -19z"/>
<path d="M408 78 l-3 -69 39 3 c22 2 41 8 43 14 2 7 -6 10 -22 7 -21 -5 -25
-2 -25 20 0 20 4 24 20 20 14 -4 20 0 20 10 0 10 -6 13 -20 10 -15 -4 -20 0
-20 16 0 16 5 21 20 19 10 -2 18 2 17 7 -1 6 -16 10 -34 11 l-31 1 -4 -69z"/>
<path d="M514 138 c-3 -4 -1 -8 4 -8 12 0 10 -103 -3 -112 -5 -4 5 -8 23 -8
29 0 31 2 20 20 -20 31 2 38 26 8 15 -20 31 -28 54 -28 23 0 30 4 26 14 -3 8
3 19 15 25 27 15 28 14 35 -14 4 -16 13 -25 25 -25 18 0 17 4 -7 63 -15 35
-31 64 -36 66 -5 1 -20 -25 -34 -58 -16 -42 -28 -58 -38 -54 -8 3 -14 11 -14
18 0 7 -6 15 -12 18 -10 4 -10 7 0 18 29 31 1 71 -48 67 -17 -1 -34 -6 -36
-10z m66 -33 c0 -14 -6 -25 -13 -25 -7 0 -13 11 -13 25 0 14 6 25 13 25 7 0
13 -11 13 -25z m114 -20 c3 -8 1 -15 -4 -15 -6 0 -10 7 -10 15 0 8 2 15 4 15
2 0 6 -7 10 -15z"/>
<path d="M780 139 c0 -5 4 -9 8 -9 10 0 9 -91 -1 -107 -6 -10 0 -13 23 -13 26
0 29 3 22 18 -7 14 -8 48 -3 93 0 6 10 9 21 6 12 -3 20 0 20 7 0 7 -18 12 -45
12 -25 1 -45 -2 -45 -7z"/>
<path d="M895 80 l0 -70 30 0 c20 0 26 3 17 9 -10 6 -13 26 -10 70 3 56 1 61
-17 61 -18 0 -20 -7 -20 -70z"/>
<path d="M985 125 c-28 -27 -31 -45 -14 -78 16 -30 28 -37 65 -37 19 0 39 9
52 23 67 71 -35 161 -103 92z m86 -19 c14 -30 5 -72 -16 -80 -37 -14 -70 37
-54 82 12 31 56 30 70 -2z"/>
<path d="M1142 88 c1 -41 -3 -63 -13 -69 -10 -6 -7 -9 11 -9 24 0 25 3 22 42
l-4 43 44 -42 c24 -24 47 -43 50 -43 4 0 8 32 10 70 2 59 1 70 -13 70 -14 0
-16 -8 -11 -47 l5 -48 -33 32 c-18 18 -37 30 -41 27 -5 -3 -6 1 -3 9 3 8 -2
17 -10 20 -12 5 -15 -5 -14 -55z"/>
</g>
</svg>
